<svg xmlns="http://www.w3.org/2000/svg" viewBox="0 0 993 1079"><defs><style>.cls-1{stroke:#3d0d0c;stroke-miterlimit:10;stroke-width:5px;}.cls-2{fill:#3d0c0c;}</style></defs><title>Logoo</title><g id="Livello_13" data-name="Livello 13"><path class="cls-1" d="M909.88,667.65c0,14.11-30.22,25.55-67.5,25.55s-67.5-11.44-67.5-25.55,30.22-25.54,67.5-25.54S909.88,653.55,909.88,667.65Z"/><line class="cls-1" x1="774.88" y1="667.65" x2="774.88" y2="666.44"/><path class="cls-1" d="M909.88,667.65v24.94c0,14.1-30.22,25.54-67.5,25.54s-67.5-11.44-67.5-25.54V667.65c0,14.11,30.22,25.55,67.5,25.55S909.88,681.76,909.88,667.65Z"/><path class="cls-1" d="M909.88,692.59v57.16c0,14.11-30.22,25.54-67.5,25.54s-67.5-11.43-67.5-25.54V692.59c0,14.1,30.22,25.54,67.5,25.54S909.88,706.69,909.88,692.59Z"/><line class="cls-1" x1="909.88" y1="667.65" x2="909.88" y2="666.44"/><path d="M388.23,115.29c5.22-1.33,7.78.63,9.76,5.83,20.78,54.66,39.24,110,49.62,167.71,4.7,26.12,7.86,52.4,3.85,79-3.21,21.33-13.29,39.63-25.62,56.8-17.27,24-39.26,43.38-62.31,61.63-18.54,14.67-38.19,27.89-56.29,43.14-8.62,7.26-14.45,16.08-19.36,26.58-13.3,28.45-14.31,58.6-15.45,88.85q-2.76,73.68-.74,147.41c.56,21.13,1.42,42.29,5.44,63.14.16.82.28,1.64.48,2.45,3.1,13,4.53,14.19,17.65,14.74,24.64,1,49.24,2.53,73.35,8.22a75,75,0,0,1,9.93,3.3c2.46,1,5.42,2.15,5.4,5.21s-3.12,4.13-5.51,5.16c-8,3.43-16.54,5.07-25.11,6.28-50.05,7.07-100.27,7.21-150.57,3.46-16.11-1.2-32.17-2.94-47.82-7.22a48.14,48.14,0,0,1-8.41-3.09c-2-1-4.55-1.87-4.38-4.83.15-2.57,2.38-3.45,4.28-4.44a48.22,48.22,0,0,1,11.28-3.93c21.65-5.14,43.76-6.59,65.88-7.85,3.16-.18,6.32-.24,9.49-.38,8.44-.38,9.79-1.29,12.59-9.47,3.53-10.32,4.62-21.11,5.62-31.89,3.92-42.21,3.31-84.54,2.93-126.85-.31-34.65-1-69.3-4.88-103.78-1.2-10.61-3.07-21-7.66-30.85-3-6.46-5.13-13.34-7.62-20.05-2-5.45-5.74-9.72-9.81-13.68-13.17-12.83-28.32-23.18-43-34.15-26-19.48-51.62-39.47-72.7-64.51-16.25-19.31-29.69-40.26-34.8-65.42-4.27-21-2.73-42.14.1-63.17,7.45-55.39,24.07-108.36,42.75-160.77,3.4-9.56,7.36-18.91,10.72-28.48,1.3-3.71,3.25-5.08,7-4.09.33.9.67,1.8,1,2.7-8.81,26.17-18,52.22-26.35,78.54-14.13,44.66-25.89,89.81-29.17,136.87-2.4,34.5,7,65.19,28.93,91.42a291.45,291.45,0,0,0,83.17,68.58q69.6,38.36,139.66.55c31.71-17.14,59.12-39.9,82.56-67C435.66,402,446.57,372.62,445,339.1a399.37,399.37,0,0,0-8.33-63.81C425.18,221.24,408,169,387.26,117.85,387.58,117,387.91,116.15,388.23,115.29Z"/><path d="M388.23,115.19c-.32.85-.65,1.7-1,2.56-1.49,0-3-.1-4.49-.1q-119.49.1-239,.23c-2.83,0-5.65.13-8.47.2-.34-.9-.68-1.8-1-2.7,2.32-.07,4.64-.2,7-.2q121.76-.12,243.51-.2C385.92,115,387.08,115.12,388.23,115.19Z"/><path d="M495,752.05l31.72-41.34c16.54-22.56,33.34-44.9,49.52-67.76,10.46-14.78,20-30.32,30-45.52l-.65.63q15.19-19.38,30.4-38.76c3.54-4.5,6.48-10,10.84-13.24,49.78-36.9,105.49-49.25,169.27-47.8-17,23-31.65,42.53-45.94,62.35-3.94,5.47-6.79,11.85-10.14,17.82-16.34,22.18-33,44.14-49,66.6-30.37,42.58-60.4,85.45-90.58,128.2-6.91,3.51-14.16,10.67-20.67,9.95-46.18-5.07-90.8-.45-136.1,22.49Z"/><path d="M606.42,767.23C636.6,724.48,666.63,681.61,697,639c16-22.46,32.63-44.42,49-66.6,7.22-8.75,13.9-18.17,21.92-26,3.6-3.5,10.81-6.59,14.77-5,22,8.62,43.52,18.72,65.53,28.46L789.3,642.1l.65-.59-66.45,90,.5-.69c-20.54,30.53-42.29,60.21-61.12,91.93-10.2,17.18-17.81,19.49-37,14.41-50.85-13.43-103-20.9-154.72-30.59-4.69-.88-9.57-.59-14.36-.88l-.67-6.11c21.53-6,42.81-14.19,64.69-17.23,21-2.91,42.81-2.17,63.9.4C598.17,784.45,604.44,781.14,606.42,767.23Z"/><path d="M789.3,642.1c16.55-17.58,32.82-35.48,49.83-52.5,3.79-3.79,10.19-4.52,16.27-2.71L815.7,635l.64-.61c-21.78,27.12-43.76,54-65.17,81.5-4.72,6-7.42,14-11,21L702.46,791.7c-13.39,20.94-26.38,42.21-40.49,62.55-3,4.25-10.91,8.34-15.12,7-48.38-14.94-96.48-30.95-144-50l149.83,35.59c1.69-2.73,6.17-9.86,10.59-17.05q30.4-49.44,60.78-98.91l-.5.69,66.45-90Z"/><path d="M702.46,791.7l37.66-54.82,76.22-102.51-.64.61c8.38-8.19,16.6-16.6,25.24-24.46a23.48,23.48,0,0,1,15.3-6.62l-25.08,37.58-19.8,25.22-54.75,73.78c-3.52,4.48-7.23,8.8-10.52,13.48q-27.66,39.39-55.15,78.92c-11.64,16.9-23.29,33.8-35.21,51.12-6.62-2.73-12.59-5.45-18.7-7.67-18.37-6.67-36.8-13.14-55.2-19.7-18.09-7.48-36.16-15-54.28-22.41-6.59-2.69-13.3-5-19.34-10.36,11.27,2.82,22.71,5,33.79,8.56,34.11,10.9,68.19,22,102.06,33.75,9.65,3.36,15.77,3.09,21.31-7.62C677.09,835.88,690,813.94,702.46,791.7Z"/><path d="M840.32,654.16c8.65-6.57,12.49-21.72,28.87-19.66-2.27,4.28-3.21,6.86-4.78,8.87q-94,120.72-188.09,241.29c-2.81,3.59-6.3,6.55-9.48,9.8l19.24-38,31-41,49.84-70.31-.51.63,53.55-71.76Z"/><path d="M838,655.62,816.21,679.1l-49.83,66.77.51-.63-49.84,70.31-31,41,4.86-23.62Q718.49,793.4,746.09,754c3.29-4.68,7-9,10.52-13.48l54.75-73.78,19.8-25.22L857.28,617l3.84,3.22Z"/><path d="M433.84,805.24q-86.61,8.09-172.51,16c-1.08-3.68-.67-2.27-1.74-5.95C315.32,799.5,372.92,790.73,433.84,805.24Z"/><path d="M426.14,786.84c-52.75-12.23-103.38-6.26-152.88,5.28q-2.85-3.76-5.72-7.51c3.64-1.93,7.19-4.11,11-5.74C325.78,758.6,375.49,762.25,426.14,786.84Z"/><path d="M273.91,773.24c15.51-27.64,95.06-27.88,140.36,0-17.72-3.89-32.72-8.42-47.66-10.06a216.34,216.34,0,0,0-46.74-.43C304.76,764.45,290.34,769.36,273.91,773.24Z"/><path d="M272.24,802.27c47.06-17.89,97.45-22.21,142.9-11.58C372,794.2,322,798.25,272.24,802.27Z"/><path d="M499.08,744.2c-11.86,19.45-23.53,38.88-35.45,59-60.56-56.88-125.15-68.21-194-41C281.69,740,291.87,721.91,302,703.55c35.57-62.43,72.8-125.41,112.72-188.08A33.4,33.4,0,0,1,434,502.06c40.84-9.25,82.43-12.33,124.2.26,24.16,7.37,45.68,20.08,62.48,42.48-9.25,16.07-18.09,31.6-26.83,47.11l.59-.62Q558.72,645.8,525,700.09c-.42.68.14,2.26.25,3.43Q512,723.88,499.08,744.2Z"/><path d="M638.21,892q6.81,7.34,13.61,14.66c-12.74-4.92-25.68-9.32-38.2-14.85-31.83-14.06-63.48-28.62-94.66-45.53,3,.5,6.2.44,9,1.58,31.69,13,63.29,26.15,95,39.13C627.88,889,633.11,890.33,638.21,892Z"/><path d="M582.14,856.22q36.58,16.47,73.16,32.95c1.29.59,2.48,1.42,3.72,2.14L658,897l-20-4.66C619.58,883,601.42,873,582.75,864.25c-15.4-7.18-31.39-12.87-46.65-20.76Z"/><path d="M418.92,814.52l37,10.81C437,835,425.06,831.19,418.92,814.52Z"/><path class="cls-2" d="M88,346.59v-6.4c.33-3.66.67-7.32,1-11,.68-7.48,1.35-15,2.07-22.88,4.16,3.23,8,6.22,11.87,9.24,13.12,10.28,26.67,19.87,41.91,26.89,28.11,13,56,13.63,83.63-1.26,17.16-9.26,34.24-18.67,51.13-28.41,35.22-20.3,72.08-35.73,113.15-38.7,10.86-.78,21.79-.63,32.69-.79,2.16,0,4.05.93,4.44,3.42,2.39,15.29,4.8,30.57,7.1,45.87.54,3.54.68,7.14,1,10.71v16.25a21.32,21.32,0,0,0-.42,2.62,101.87,101.87,0,0,1-22.51,60.26c-25.92,32.48-57.29,58.52-94.66,77a128.38,128.38,0,0,1-56.13,13.69c-22.12.23-42.84-5.39-62.35-15.49-33.67-17.42-62.22-41.28-86.66-70.11a110.4,110.4,0,0,1-25.9-57.74C88.82,355.39,88.49,351,88,346.59Z"/></g></svg>