<svg xmlns="http://www.w3.org/2000/svg" viewBox="0 0 1920 1066"><defs><style>.cls-1{stroke:#3d0d0c;stroke-miterlimit:10;stroke-width:5px;}.cls-2{fill:#3d0c0c;}.cls-3{fill:#8a5050;}</style></defs><title>Logotipo</title><g id="Livello_2" data-name="Livello 2"><path class="cls-1" d="M909.84,661.39c0,14.11-30.22,25.55-67.5,25.55s-67.5-11.44-67.5-25.55,30.22-25.54,67.5-25.54S909.84,647.29,909.84,661.39Z"/><line class="cls-1" x1="774.84" y1="661.39" x2="774.84" y2="660.18"/><path class="cls-1" d="M909.84,661.39v24.94c0,14.1-30.22,25.54-67.5,25.54s-67.5-11.44-67.5-25.54V661.39c0,14.11,30.22,25.55,67.5,25.55S909.84,675.5,909.84,661.39Z"/><path class="cls-1" d="M909.84,686.33v57.16c0,14.11-30.22,25.54-67.5,25.54s-67.5-11.43-67.5-25.54V686.33c0,14.1,30.22,25.54,67.5,25.54S909.84,700.43,909.84,686.33Z"/><line class="cls-1" x1="909.84" y1="661.39" x2="909.84" y2="660.18"/><path d="M388.2,109c5.21-1.33,7.78.62,9.75,5.82,20.79,54.66,39.24,110,49.63,167.72,4.7,26.12,7.85,52.4,3.85,79-3.21,21.33-13.29,39.63-25.63,56.8-17.27,24-39.25,43.38-62.3,61.63-18.54,14.67-38.2,27.89-56.3,43.13-8.62,7.27-14.44,16.09-19.35,26.59-13.3,28.44-14.31,58.6-15.45,88.85q-2.77,73.68-.74,147.41c.56,21.13,1.41,42.28,5.44,63.14.15.82.28,1.64.47,2.45,3.1,13,4.53,14.19,17.65,14.73,24.64,1,49.24,2.54,73.35,8.23a71.34,71.34,0,0,1,9.93,3.3c2.47,1,5.43,2.15,5.4,5.21s-3.11,4.13-5.51,5.16c-8,3.43-16.54,5.07-25.11,6.28-50,7.07-100.27,7.21-150.56,3.46-16.11-1.21-32.17-2.94-47.82-7.23a47.81,47.81,0,0,1-8.41-3.08c-2-1-4.56-1.87-4.38-4.83.15-2.58,2.37-3.45,4.27-4.44a48.38,48.38,0,0,1,11.28-3.93c21.66-5.15,43.76-6.59,65.88-7.86,3.16-.18,6.33-.23,9.49-.38,8.45-.37,9.79-1.28,12.59-9.46,3.54-10.32,4.62-21.12,5.62-31.89,3.92-42.21,3.31-84.54,2.94-126.85-.31-34.65-1-69.3-4.89-103.78-1.2-10.61-3.06-21-7.65-30.85-3-6.46-5.13-13.34-7.62-20.05-2-5.45-5.75-9.72-9.81-13.68-13.17-12.83-28.33-23.18-43-34.15-26-19.48-51.61-39.48-72.69-64.51-16.25-19.31-29.7-40.27-34.81-65.42-4.27-21-2.72-42.14.11-63.18C81.28,247,97.9,194,116.57,141.57c3.41-9.55,7.36-18.91,10.72-28.47,1.3-3.71,3.26-5.08,7-4.09l1,2.7c-8.81,26.17-18,52.22-26.34,78.54C94.78,234.9,83,280.06,79.75,327.12c-2.41,34.5,7,65.19,28.92,91.41a291.45,291.45,0,0,0,83.17,68.59q69.6,38.36,139.67.55c31.7-17.14,59.11-39.9,82.56-67,21.55-24.94,32.46-54.29,30.86-87.81A399.24,399.24,0,0,0,436.59,269c-11.45-54-28.64-106.3-49.37-157.44C387.55,110.74,387.87,109.88,388.2,109Z"/><path d="M388.2,108.93c-.33.85-.65,1.7-1,2.56-1.49,0-3-.1-4.48-.1q-119.5.1-239,.23c-2.82,0-5.65.13-8.47.19-.34-.89-.67-1.79-1-2.69,2.32-.07,4.64-.2,7-.2q121.75-.12,243.51-.2C385.88,108.72,387,108.85,388.2,108.93Z"/><path d="M494.94,745.78l31.72-41.33c16.53-22.56,33.34-44.9,49.51-67.76,10.47-14.78,20-30.32,30-45.52l-.65.63q15.19-19.38,30.4-38.76c3.54-4.51,6.48-10,10.84-13.24C696.52,502.9,752.24,490.55,816,492c-17,23-31.65,42.52-45.93,62.35-3.94,5.46-6.8,11.85-10.15,17.82-16.34,22.18-32.95,44.14-49,66.6-30.37,42.58-60.4,85.45-90.57,128.2-6.91,3.51-14.16,10.67-20.68,9.95-46.18-5.08-90.79-.45-136.1,22.49Z"/><path d="M606.39,761c30.17-42.75,60.2-85.62,90.57-128.2,16-22.46,32.63-44.42,49-66.6,7.23-8.76,13.91-18.17,21.92-26,3.6-3.5,10.81-6.59,14.78-5,22,8.62,43.52,18.73,65.52,28.46l-58.88,72.21.64-.59-66.45,90,.5-.69c-20.53,30.53-42.29,60.21-61.12,91.93-10.2,17.18-17.8,19.49-37,14.41C575,817.52,522.78,810.05,471.1,800.36c-4.69-.88-9.57-.59-14.35-.88l-.68-6.11c21.54-6,42.81-14.19,64.7-17.23,21-2.91,42.8-2.17,63.9.4C598.14,778.18,604.4,774.88,606.39,761Z"/><path d="M789.27,635.84c16.54-17.58,32.81-35.48,49.83-52.5,3.79-3.8,10.18-4.52,16.26-2.71l-39.7,48.09.64-.61c-21.77,27.12-43.76,54-65.17,81.5-4.72,6-7.41,13.95-11,21l-37.67,54.83C689,806.38,676,827.65,661.93,848c-2.95,4.25-10.9,8.33-15.12,7-48.38-14.94-96.48-30.95-144-50l149.82,35.58c1.7-2.72,6.17-9.86,10.59-17q30.41-49.44,60.78-98.91l-.5.69,66.45-90Z"/><path d="M702.42,785.44l37.67-54.83,76.21-102.5-.64.61c8.39-8.19,16.61-16.6,25.24-24.46a23.5,23.5,0,0,1,15.3-6.62q-12.53,18.79-25.07,37.58l-19.81,25.22-54.75,73.78c-3.51,4.48-7.23,8.8-10.51,13.48q-27.67,39.38-55.16,78.91l-35.2,51.12c-6.63-2.73-12.59-5.44-18.71-7.66-18.37-6.67-36.79-13.15-55.2-19.7-18.09-7.48-36.15-15-54.27-22.42-6.59-2.68-13.31-5-19.35-10.35,11.28,2.82,22.72,5,33.79,8.56,34.12,10.9,68.2,22,102.06,33.75,9.65,3.35,15.77,3.09,21.31-7.62C677.06,829.62,690,807.68,702.42,785.44Z"/><path d="M840.28,647.9c8.65-6.57,12.5-21.72,28.88-19.66-2.28,4.27-3.22,6.86-4.78,8.87q-94,120.72-188.1,241.28c-2.81,3.6-6.3,6.56-9.47,9.81l19.23-38q15.5-20.46,31-40.94L766.85,739l-.5.63,53.55-71.76Z"/><path d="M838,649.36q-10.9,11.73-21.8,23.48l-49.83,66.77.5-.63L717,809.29q-15.49,20.48-31,40.94l4.86-23.62q27.57-39.47,55.16-78.91c3.28-4.68,7-9,10.51-13.48l54.75-73.78,19.81-25.22,26.12-24.51,3.83,3.22Z"/><path d="M433.8,799q-86.61,8.09-172.51,16c-1.08-3.68-.66-2.27-1.74-6C315.28,793.24,372.89,784.47,433.8,799Z"/><path d="M426.11,780.58c-52.76-12.23-103.39-6.27-152.89,5.27l-5.71-7.51c3.64-1.92,7.18-4.1,11-5.73C325.74,752.34,375.45,756,426.11,780.58Z"/><path d="M273.87,767c15.51-27.64,95.06-27.88,140.37,0-17.73-3.89-32.72-8.42-47.67-10.07a216.32,216.32,0,0,0-46.74-.42C304.72,758.19,290.3,763.1,273.87,767Z"/><path d="M272.2,796c47.07-17.89,97.46-22.21,142.9-11.58C372,787.94,322,792,272.2,796Z"/><path d="M499,737.94c-11.85,19.45-23.52,38.88-35.45,59-60.56-56.88-125.14-68.21-194-41,12.06-22.18,22.25-40.32,32.38-58.68,35.57-62.42,72.8-125.4,112.71-188.07A33.49,33.49,0,0,1,434,495.79c40.83-9.24,82.43-12.32,124.19.27,24.16,7.37,45.68,20.08,62.48,42.48-9.24,16.07-18.08,31.6-26.83,47.11l.6-.63q-35.71,54.53-69.46,108.81c-.41.67.15,2.26.25,3.43Q512,717.62,499,737.94Z"/><path d="M638.18,885.72l13.61,14.65c-12.75-4.91-25.69-9.31-38.21-14.84-31.83-14.06-63.47-28.62-94.65-45.53,3,.5,6.2.44,9,1.58,31.68,13,63.29,26.15,95,39.13C627.85,882.75,633.07,884.07,638.18,885.72Z"/><path d="M582.11,850q36.58,16.47,73.16,32.95a40.45,40.45,0,0,1,3.71,2.14l-1,5.72-20-4.65c-18.38-9.43-36.55-19.41-55.22-28.13-15.39-7.18-31.38-12.87-46.65-20.76Z"/><path d="M418.88,808.26l37,10.81C436.94,828.7,425,824.93,418.88,808.26Z"/><path class="cls-2" d="M88,340.33v-6.4c.33-3.66.67-7.32,1-11,.68-7.48,1.36-15,2.07-22.88,4.16,3.23,8,6.22,11.88,9.23,13.12,10.29,26.66,19.88,41.9,26.89,28.12,12.95,56,13.64,83.64-1.26,17.16-9.25,34.24-18.66,51.12-28.4,35.22-20.31,72.08-35.74,113.16-38.7,10.86-.78,21.78-.63,32.68-.79,2.17,0,4.05.93,4.44,3.42,2.4,15.28,4.81,30.57,7.11,45.87.53,3.54.68,7.14,1,10.71v16.24a23.92,23.92,0,0,0-.41,2.63,101.82,101.82,0,0,1-22.52,60.26c-25.92,32.48-57.29,58.52-94.66,77a128.33,128.33,0,0,1-56.12,13.69c-22.12.23-42.85-5.39-62.36-15.49-33.66-17.42-62.22-41.28-86.65-70.11A110.41,110.41,0,0,1,89.37,353.5C88.79,349.13,88.45,344.72,88,340.33Z"/><path class="cls-3" d="M781.9,400.73q0,8.22-3.24,20.74Q774.37,438.18,755,447.9q-20.12,10.14-52,10.15-31.24,0-49.44-12.17-15.24-10.06-15.23-23a18.82,18.82,0,0,1,6.39-14.27q7.26-6.83,21-8.66a108.83,108.83,0,0,1,14-.88q14.79,0,23.37,4.29,8.31,4.11,8.31,10.94,0,10.33-11,17.42-5.25,3.41-17.94,7.87-4.9,1.67-4.91,3.06,0,4.29,18.12,4.29,14.26,0,24.15-4.11,12.25-5.07,12.26-14.7a17.78,17.78,0,0,0-.35-3.24q-5-25.56-7.44-30.54-5.25-10.33-20-10.33-3.84,0-13.17,1t-13.43,1q-28.28,0-28.27-22.84a68.43,68.43,0,0,1,2.89-17.68q3.86-14.17,17.24-22.57,16-10.06,43.67-10.07,28.44,0,44.37,8.93,14.45,8.13,14.44,20.65,0,18.65-29.75,18.64-14.54,0-24.68-4.81-9.54-4.47-9.54-10.24,0-8.31,12.69-13.13,4.81-1.57,9.71-3.15c3-1.11,4.46-2.24,4.46-3.41,0-1.58-2-3-6.17-4.16a50.16,50.16,0,0,0-14-1.79q-9.63,0-15.76,3.06-7.35,3.68-7.35,10.94a20.42,20.42,0,0,0,1.66,7.53l4.73,15.75q2.72,8.4,8.05,12.08,7,4.81,21.79,4.81,1.32,0,8.32-.31t10.5-.3q16.8,0,24.85,4.81Q781.91,385,781.9,400.73Z"/><path class="cls-3" d="M922.62,392.24a43,43,0,0,1-.7,7.35Q918.16,420.86,907.4,435,895,451.4,877.47,451.4q-21.54,0-35.71-8.41a2.63,2.63,0,0,0-.09.79q0,3.59,4.47,16-19.87-9.45-38.95-9.45-11.9,0-17.15,4.46l.53-20.39a15.44,15.44,0,0,1,6.65-1.31,30.53,30.53,0,0,1,13.39,3.41q-11.82-43.32-11.82-108.08,0-6.82-7.7-8.23-2.8-.43-8.23-1.57-2.18-.7-2.18-7.18a21,21,0,0,1,.17-2.62c.12-.88.18-1.37.18-1.49q4.8,1.31,72.63,6.74a202.13,202.13,0,0,0-17.59,68.35l6.83-8.58a44.27,44.27,0,0,1,11.72-9.8,54.16,54.16,0,0,1,20.13-6.57,85.39,85.39,0,0,1,10.77-.7q20.73,0,30.19,12.52Q922.63,378.49,922.62,392.24ZM902.76,408q0-5.52-12.43-10.15A72.52,72.52,0,0,0,865,393.37a78.09,78.09,0,0,0-23.76,3.37q-10.55,3.38-10.54,7.75,0,5,12.42,10.46t23.28,5.47a86,86,0,0,0,23.72-3.15Q902.76,413.6,902.76,408Z"/><path class="cls-3" d="M1065.27,389.61q0,12.25-22.23,18a91.78,91.78,0,0,1-23.28,3.41q-19,0-19-10.32,0-11.73,9.8-19.87,7.8-6.48,19.78-9.36a1.35,1.35,0,0,0,1.05-1.49q0-2-4.37-4.29a25.2,25.2,0,0,0-11.56-2.54,34.3,34.3,0,0,0-20.91,6.65q-11.12,8.24-11.12,23.28,0,12.43,7.88,37.9c.47,1.45,3.5,2.77,9.1,3.93a189.4,189.4,0,0,0,23.46,2.8q-1.23,5.52-3,13.31c-2.27-.12-5.63-.18-10.06-.18a319.3,319.3,0,0,0-79.55,10.06q-2.62-3.93-4.38-12.42c-.12-.64.2-1.11,1-1.4q10.5-4.38,10.68-4.38c3.09-1.63,4.73-3.59,4.9-5.86q1.14-9.19,2.28-18.29a259.88,259.88,0,0,0,2-27.39q0-10.5-2.36-12.17-2.89-2.19-8.4-2.19a51.65,51.65,0,0,0-7.18.88c-.94.17-1.4.06-1.4-.35,0-.88-.37-4-1.09-9.5s-1.1-8.5-1.1-9.14c0-.82.5-1.11,1.49-.88a57.08,57.08,0,0,0,15,2q18.56,0,38.68-13.48-1.14,6.92-2.89,17.94,14-13.12,39-13.13,33.87,0,44.63,25.47Q1065.27,384.36,1065.27,389.61Z"/><path class="cls-3" d="M1153.66,453.23a210.67,210.67,0,0,0-37.81-3.23q-19.33,0-54.08,6.38,1.31-6.47,3-15.05,14-1.66,18.24-6.69t7.13-18.69a119.23,119.23,0,0,0,2.8-25.29q0-13.12-11.11-13.13a27.6,27.6,0,0,0-6.65.79q-4.82-10.59-4.81-15.14,35.88-.26,67-11.81c.23.17.35.67.35,1.49a49.88,49.88,0,0,1-.87,7q-5.61,31-5.6,51.54,0,14.27,3.41,18.64a7.08,7.08,0,0,0,5.95,2.72,26.09,26.09,0,0,0,10-2.37c1.05-.41,1.66.09,1.83,1.49Q1153.39,439.5,1153.66,453.23Zm-.7-124.09q0,5.87-13.48,10a84.9,84.9,0,0,1-25.2,3.67q-12.43,0-20.39-4.64-9.2-5.41-9.19-15.57,0-13.14,30.28-13.13,16.8,0,27.74,6.21Q1153,321.43,1153,329.14Z"/><path class="cls-3" d="M1303.83,377q0,14.36-22,19.34a79.08,79.08,0,0,1-17.59,2.19q-21.36,0-21.36-11.64,0-8.92,9.54-15.58a39,39,0,0,1,8.58-4.46q7.26-2.89,8.75-3.68,2-1,2-2.1c0-1.22-1.81-1.84-5.42-1.84a35.58,35.58,0,0,0-7.7,1q-15.4,3.24-28,19.42-8.4,10.86-11.73,20.83,3.94-.34,6-.35a99.25,99.25,0,0,1,50.15,13.66q27,15.32,28.18,38l-63.45-.35a12.69,12.69,0,0,1-.7-4.64q0-3.76,1.84-4.29a89.07,89.07,0,0,0,8.75-2.8q4.63-2,4.64-5.08a6.14,6.14,0,0,0-.53-2.18q-4-9.9-17.41-14.88a62.79,62.79,0,0,0-22.58-3.94h-3.15q0,4.47,6.39,22.58,5.6,16.09,8.84,22.75a138,138,0,0,0-26.52-9.27q-15.84-3.94-27.13-3.94-9.81,0-13.22,3.15l.53-20.57a18.94,18.94,0,0,1,6.65-1.05,30.85,30.85,0,0,1,13.57,3.42q-6.13-17-10.16-46a338.1,338.1,0,0,1-3.76-46.91c0-.35,0-1.13.09-2.36s.09-2.25.09-3.06q0-3.86-4.77-6.39a27.26,27.26,0,0,0-11.42-2.89c-.94-.06-1.4-3.18-1.4-9.36q36.23-1.85,72.54-6-15.22,38.16-15.22,74.56a119.26,119.26,0,0,0,.87,15.58,96.91,96.91,0,0,1,10.68-22.93q15.32-23.54,38.5-27a80.16,80.16,0,0,1,10.94-.87q14.79,0,23.9,7,5.77,4.38,10.5,13.3A21.05,21.05,0,0,1,1303.83,377Z"/><path class="cls-3" d="M1455.84,377q0,14.36-22,19.34a79.08,79.08,0,0,1-17.59,2.19q-21.36,0-21.36-11.64,0-8.92,9.54-15.58a39,39,0,0,1,8.58-4.46q7.26-2.89,8.75-3.68,2-1,2-2.1c0-1.22-1.81-1.84-5.42-1.84a35.58,35.58,0,0,0-7.7,1q-15.4,3.24-28,19.42-8.4,10.86-11.72,20.83,3.93-.34,6-.35a99.25,99.25,0,0,1,50.15,13.66q27,15.32,28.18,38l-63.45-.35a12.69,12.69,0,0,1-.7-4.64q0-3.76,1.84-4.29a88,88,0,0,0,8.75-2.8q4.63-2,4.64-5.08a6.14,6.14,0,0,0-.53-2.18q-4-9.9-17.41-14.88a62.79,62.79,0,0,0-22.58-3.94h-3.15q0,4.47,6.39,22.58,5.6,16.09,8.84,22.75a138,138,0,0,0-26.52-9.27q-15.84-3.94-27.13-3.94-9.8,0-13.21,3.15l.52-20.57a18.94,18.94,0,0,1,6.65-1.05,30.85,30.85,0,0,1,13.57,3.42q-6.13-17-10.15-46a338.25,338.25,0,0,1-3.77-46.91c0-.35,0-1.13.09-2.36s.09-2.25.09-3.06q0-3.86-4.77-6.39a27.26,27.26,0,0,0-11.42-2.89c-.94-.06-1.4-3.18-1.4-9.36q36.23-1.85,72.55-6-15.24,38.16-15.23,74.56a119.26,119.26,0,0,0,.87,15.58,96.91,96.91,0,0,1,10.68-22.93q15.31-23.54,38.51-27a79.92,79.92,0,0,1,10.94-.87q14.78,0,23.89,7,5.77,4.38,10.5,13.3A21.05,21.05,0,0,1,1455.84,377Z"/><path class="cls-3" d="M1547,453.23a210.75,210.75,0,0,0-37.81-3.23q-19.34,0-54.08,6.38,1.31-6.47,3-15.05,14-1.66,18.25-6.69t7.13-18.69a119.23,119.23,0,0,0,2.8-25.29q0-13.12-11.11-13.13a27.54,27.54,0,0,0-6.65.79q-4.82-10.59-4.82-15.14,35.88-.26,67-11.81c.23.17.35.67.35,1.49a48.83,48.83,0,0,1-.88,7q-5.6,31-5.6,51.54,0,14.27,3.41,18.64a7.1,7.1,0,0,0,6,2.72,26,26,0,0,0,10-2.37c1-.41,1.66.09,1.84,1.49Q1546.68,439.5,1547,453.23Zm-.71-124.09q0,5.87-13.47,10a85,85,0,0,1-25.21,3.67q-12.42,0-20.39-4.64-9.18-5.41-9.19-15.57,0-13.14,30.28-13.13,16.82,0,27.75,6.21Q1546.24,321.43,1546.24,329.14Z"/><path class="cls-3" d="M1603,325.55a34,34,0,0,1-3.41,13.65q-3.42,7.62-6.74,9.72a26.68,26.68,0,0,1-7.18,1.57c-1,0-1.48-.35-1.48-1.05a8.07,8.07,0,0,1,1.13-2.19c1.87-3.26,2.8-5.89,2.8-7.87q0-3.94-5.86-3.94a58.19,58.19,0,0,0-7,.7,31.24,31.24,0,0,1-3.59.35,16.78,16.78,0,0,1-11.86-4.51,14.92,14.92,0,0,1-4.85-11.42q0-5.87,7.08-9.36,6.57-3.33,16.46-3.33,11.55,0,18.2,5A15.21,15.21,0,0,1,1603,325.55Z"/><path class="cls-3" d="M1740,419.37a47.6,47.6,0,0,1-.53,7.08q-2.54,16.73-24.76,26-20.57,8.66-51.9,8.66-21.43,0-35-5.95-11.64-5.09-14.18-12.52a29.75,29.75,0,0,1-1.75-9q0-12.69,24.15-15.93a118.37,118.37,0,0,1,15.06-1.05q12.6,0,20,3.15t7.35,8.67q0,5.77-5.34,10.24-6.65,5.6-20.13,7.52c-5.36.76-8.05,1.9-8.05,3.42s4.73,2.45,14.18,2.45a81.31,81.31,0,0,0,9.8-.53q12.35-1.49,18.12-4.29,8.74-4.11,8.4-12.34-1.14-26.68-26.34-26.69c-1.7,0-5.12.21-10.29.61s-8.82.62-11,.62q-26.43,0-26.43-18.12a34.08,34.08,0,0,1,.79-7.7q2.88-13.92,15.84-22.23,14.88-9.54,40.26-9.54,24.58,0,36.31,4.47,10.24,3.84,13.66,12.42,2.18,5.34,2.18,8.4,0,9.9-21,11.29c-2.63.12-5.48.18-8.58.18q-27.82,0-27.83-9.63,0-8.4,9.72-12.6,1.21-.53,14.53-3.76c1-.24,1.57-.64,1.57-1.23q0-3.06-13.56-3.06-25.83,0-25.82,15.4a24.06,24.06,0,0,0,1.4,7.7q3.24,9.28,10.15,12.95,5.68,3.07,15.67,3.07c2.27,0,6-.16,11-.48s8.87-.49,11.38-.49q14.7,0,22,4.47Q1740,406.33,1740,419.37Z"/><path class="cls-3" d="M1140.33,620a52.14,52.14,0,0,1-.83,8.77q-4.5,25.37-17.33,42.28-14.84,19.53-35.71,19.52-25.68,0-42.59-10a3.12,3.12,0,0,0-.11.94q0,4.28,5.33,19.11-23.7-11.28-46.46-11.28-14.19,0-20.46,5.32l.63-24.32a18.57,18.57,0,0,1,7.93-1.57,36.36,36.36,0,0,1,16,4.08q-14.09-51.69-14.09-128.93,0-8.14-9.19-9.82c-2.22-.35-5.5-1-9.81-1.88-1.74-.55-2.61-3.41-2.61-8.56a23.51,23.51,0,0,1,.21-3.13c.14-1,.21-1.64.21-1.77q5.75,1.56,86.65,8a241.31,241.31,0,0,0-21,81.54l8.15-10.23a52.75,52.75,0,0,1,14-11.7,64.9,64.9,0,0,1,24-7.83,101.36,101.36,0,0,1,12.84-.83q24.73,0,36,14.93Q1140.32,603.61,1140.33,620Zm-23.7,18.79q0-6.57-14.82-12.11a86.62,86.62,0,0,0-30.28-5.32,92.91,92.91,0,0,0-28.34,4q-12.59,4-12.58,9.24,0,5.94,14.83,12.47t27.77,6.53a102.8,102.8,0,0,0,28.29-3.76Q1116.63,645.47,1116.63,638.78Z"/><path class="cls-3" d="M1290.87,617.28a142.41,142.41,0,0,1-2.4,23.69q-4.17,24.64-18.37,41.14-18.37,21.3-49,21.29-27.78,0-50.22-17.74-23.7-18.79-23.7-45.1,0-20.67,17.75-39.26,20.15-21.07,52.41-25.16a202.16,202.16,0,0,1,23.9-1.25q27.15,0,39,11.07Q1290.86,596,1290.87,617.28Zm-17.95,15.13q0-8-13.37-12.63-12.1-4.06-31.11-4.07-20.88,0-40.61,11.48-18.58,10.86-18.58,20.57,0,6.69,11.9,11.17t28.92,4.49a94.79,94.79,0,0,0,42.18-10.13Q1272.92,643.17,1272.92,632.41Z"/><path class="cls-3" d="M1441.41,617.28A142.41,142.41,0,0,1,1439,641q-4.17,24.64-18.37,41.14-18.37,21.3-49,21.29-27.78,0-50.22-17.74-23.7-18.79-23.7-45.1,0-20.67,17.75-39.26,20.15-21.07,52.41-25.16a202.22,202.22,0,0,1,23.91-1.25q27.14,0,38.94,11.07Q1441.42,596,1441.41,617.28Zm-18,15.13q0-8-13.36-12.63-12.12-4.06-31.11-4.07-20.9,0-40.62,11.48-18.57,10.86-18.58,20.57,0,6.69,11.9,11.17t28.92,4.49a94.79,94.79,0,0,0,42.18-10.13Q1423.46,643.17,1423.46,632.41Z"/><path class="cls-3" d="M1625.05,601.83q0,17.11-26.2,23.07a94.46,94.46,0,0,1-21,2.61q-25.47,0-25.47-13.89,0-10.65,11.38-18.58a45.9,45.9,0,0,1,10.23-5.32q8.67-3.45,10.44-4.39c1.6-.76,2.4-1.6,2.4-2.5q0-2.21-6.47-2.2a42.73,42.73,0,0,0-9.19,1.15q-18.37,3.87-33.41,23.18-10,12.94-14,24.84,4.71-.4,7.21-.41,31.42,0,59.82,16.28Q1623,663.94,1624.42,691l-75.68-.42a15.06,15.06,0,0,1-.84-5.53q0-4.49,2.19-5.12a100.65,100.65,0,0,0,10.44-3.34c3.69-1.6,5.54-3.61,5.54-6.05a7.27,7.27,0,0,0-.63-2.61q-4.8-11.79-20.78-17.75a75,75,0,0,0-26.93-4.7H1514q0,5.32,7.62,26.94,6.69,19.22,10.55,27.14a165.6,165.6,0,0,0-31.64-11.06q-18.88-4.71-32.36-4.7-11.7,0-15.76,3.76L1453,663a22.74,22.74,0,0,1,7.94-1.25,36.9,36.9,0,0,1,16.18,4.07q-7.3-20.25-12.11-54.81-4.5-31.63-4.49-56c0-.42,0-1.36.1-2.82s.11-2.68.11-3.66q0-4.59-5.69-7.62a32.4,32.4,0,0,0-13.63-3.44q-1.67-.1-1.67-11.17,43.23-2.21,86.55-7.21-18.16,45.52-18.17,89a140.52,140.52,0,0,0,1.05,18.58,115.34,115.34,0,0,1,12.74-27.35q18.25-28.08,45.93-32.15a94.38,94.38,0,0,1,13.05-1q17.64,0,28.5,8.35,6.88,5.22,12.53,15.87A25.07,25.07,0,0,1,1625.05,601.83Z"/><path class="cls-3" d="M1778.83,652.35a56.55,56.55,0,0,1-.63,8.46q-3,19.94-29.54,31-24.54,10.33-61.91,10.33-25.57,0-41.76-7.1-13.89-6.06-16.91-14.93a35.43,35.43,0,0,1-2.09-10.75q0-15.14,28.81-19a142,142,0,0,1,18-1.25q15,0,23.8,3.76t8.77,10.33q0,6.88-6.37,12.22-7.93,6.68-24,9-9.6,1.36-9.6,4.08,0,2.91,16.91,2.92a96.61,96.61,0,0,0,11.69-.63q14.73-1.77,21.61-5.11,10.44-4.9,10-14.72-1.35-31.85-31.42-31.84-3,0-12.27.73t-13.1.73q-31.53,0-31.53-21.61a41.37,41.37,0,0,1,.94-9.19q3.45-16.6,18.9-26.52,17.75-11.37,48-11.38,29.34,0,43.33,5.33,12.21,4.59,16.28,14.82,2.61,6.38,2.61,10,0,11.81-25,13.47c-3.13.14-6.55.21-10.23.21q-33.21,0-33.2-11.48,0-10,11.59-15,1.46-.62,17.33-4.49c1.25-.27,1.88-.76,1.88-1.46q0-3.65-16.19-3.65-30.79,0-30.79,18.37a28.4,28.4,0,0,0,1.67,9.19q3.86,11.07,12.11,15.45,6.78,3.66,18.68,3.65,4.08,0,13.16-.57t13.57-.57q17.54,0,26.31,5.32Q1778.83,636.8,1778.83,652.35Z"/></g></svg>